<?xml version="1.0" encoding="UTF-8"?>
<svg width="40px" height="37px" viewBox="0 0 40 37" version="1.1" xmlns="http://www.w3.org/2000/svg" xmlns:xlink="http://www.w3.org/1999/xlink">
    <title>ico_billpayment</title>
    <defs>
        <path d="M27.1019678,0 L27.1019678,33.3005023 C27.1019678,35.1381772 25.612238,36.627907 23.7745631,36.627907 L0.125223614,36.627907 L0.125223614,36.627907 L0.125223614,1.71162791 C0.125223614,0.766321917 0.89154553,3.95694498e-16 1.83685152,0 L27.1019678,0 L27.1019678,0 Z" id="path-1"></path>
    </defs>
    <g id="IDLE-MESSAGE" stroke="none" stroke-width="1" fill="none" fill-rule="evenodd">
        <g id="Desktop/Landing_nation_wide" transform="translate(-354.000000, -1244.000000)">
            <g id="sejarah-kami-copy-3" transform="translate(0.000000, 968.000000)">
                <g id="Group-4" transform="translate(130.000000, 76.000000)">
                    <g id="list_feature" transform="translate(198.000000, 172.000000)">
                        <g id="Group-2" transform="translate(23.826087, 28.000000)">
                            <g id="Group" transform="translate(21.521739, 18.478261) scale(-1, 1) translate(-21.521739, -18.478261) translate(0.869565, 0.000000)">
                                <rect id="Rectangle" fill="#FFD600" x="16.1538462" y="0" width="20.4651163" height="8.37209302"></rect>
                                <g id="Group-3" transform="translate(5.456172, 0.000000)">
                                    <mask id="mask-2" fill="white">
                                        <use xlink:href="#path-1"></use>
                                    </mask>
                                    <use id="Rectangle" fill="#FFD500" fill-rule="nonzero" xlink:href="#path-1"></use>
                                </g>
                                <polygon id="Rectangle-3" fill="#FFE97F" fill-rule="nonzero" points="19.8255814 27.5 27.0348837 27.5 27.0348837 36.627907 19.8255814 36.627907"></polygon>
                                <path d="M21.627907,25.6395349 L27.0348837,25.6395349 L27.0348837,36.627907 L24.9553116,36.627907 C23.1176368,36.627907 21.627907,35.1381772 21.627907,33.3005023 L21.627907,25.6395349 L21.627907,25.6395349 Z" id="Rectangle-2" fill="#FFD500" fill-rule="nonzero"></path>
                                <path d="M0,27.5 L19.8255814,27.5 L19.8255814,36.627907 L1.66370233,36.627907 C0.744864903,36.627907 -1.4417871e-15,35.8830421 0,34.9642047 L0,27.5 L0,27.5 Z" id="Rectangle" fill="#FFE97F" fill-rule="nonzero"></path>
                                <path d="M27.0348837,25.6395349 L32.4418605,25.6395349 L32.4418605,33.3005023 C32.4418605,35.1381772 30.9521307,36.627907 29.1144558,36.627907 L27.0348837,36.627907 L27.0348837,36.627907 L27.0348837,25.6395349 Z" id="Rectangle-2" fill="#FFD500" fill-rule="nonzero"></path>
                                <path d="M10.483014,17.5581395 L27.4239628,17.5581395 C27.8833815,17.5581395 28.255814,17.930572 28.255814,18.3899907 L28.255814,18.8193116 C28.255814,19.2787303 27.8833815,19.6511628 27.4239628,19.6511628 L10.483014,19.6511628 C10.0235952,19.6511628 9.65116279,19.2787303 9.65116279,18.8193116 L9.65116279,18.3899907 C9.65116279,17.930572 10.0235952,17.5581395 10.483014,17.5581395 Z" id="Rectangle-4" fill="#FFFFFF" fill-rule="nonzero" opacity="0.872605097"></path>
                                <path d="M19.6690605,21.744186 L27.4239628,21.744186 C27.8833815,21.744186 28.255814,22.1166185 28.255814,22.5760372 L28.255814,23.0053581 C28.255814,23.4647769 27.8833815,23.8372093 27.4239628,23.8372093 L19.6690605,23.8372093 C19.2096418,23.8372093 18.8372093,23.4647769 18.8372093,23.0053581 L18.8372093,22.5760372 C18.8372093,22.1166185 19.2096418,21.744186 19.6690605,21.744186 Z" id="Rectangle-4" fill="#FFFFFF" fill-rule="nonzero" opacity="0.872605097"></path>
                                <path d="M32.5581395,0 L36.2790698,0 L36.2790698,10.9883721 L35.8855442,10.9883721 C34.0478693,10.9883721 32.5581395,9.49864229 32.5581395,7.66096744 L32.5581395,0 L32.5581395,0 Z" id="Rectangle-2" fill="#E1BD09" fill-rule="nonzero" transform="translate(34.418605, 5.494186) scale(1, -1) translate(-34.418605, -5.494186) "></path>
                                <path d="M36.2790698,0 L40,0 L40,7.66096744 C40,9.49864229 38.5102702,10.9883721 36.6725953,10.9883721 L36.2790698,10.9883721 L36.2790698,10.9883721 L36.2790698,0 Z" id="Rectangle-2" fill="#E1BD09" fill-rule="nonzero" transform="translate(38.139535, 5.494186) scale(1, -1) translate(-38.139535, -5.494186) "></path>
                            </g>
                            <circle id="Oval" fill="#ED2324" cx="23.1041456" cy="8.8372093" r="6.04651163"></circle>
                            <path d="M23.1806031,10.0060144 L22.5689433,9.05573376 C22.9894594,8.79109864 23.2761749,8.35805934 23.2761749,7.93103448 C23.2761749,7.10705694 22.619915,6.51162791 21.7087968,6.51162791 L20.3644196,6.51162791 C20.0840755,6.51162791 19.8483316,6.72814755 19.8483316,6.99278268 L19.8483316,10.5172414 C19.8483316,10.6435445 19.9311606,10.7217322 20.0649611,10.7217322 L20.663878,10.7217322 C20.7913071,10.7217322 20.874136,10.6435445 20.874136,10.5172414 L20.874136,9.30232558 L21.4730529,9.30232558 L22.3523138,10.5773857 C22.4478856,10.7157177 22.6135435,10.7578188 22.7728299,10.7578188 C23.0722883,10.7578188 23.2825464,10.5593424 23.2825464,10.3007217 C23.2825464,10.1984763 23.2443176,10.1022454 23.1806031,10.0060144 Z M21.6960539,8.44827586 L20.874136,8.44827586 L20.874136,7.3957498 L21.6960539,7.3957498 C22.0018837,7.3957498 22.2503705,7.63031275 22.2503705,7.91900561 C22.2503705,8.21371291 22.0018837,8.44827586 21.6960539,8.44827586 Z M25.5507847,7.48596632 C24.5886948,7.48596632 23.8050057,8.21371291 23.8050057,9.18805132 L23.8050057,11.6720128 C23.8050057,11.9246191 24.0088923,12.0930233 24.2637506,12.0930233 C24.5122374,12.0930233 24.7161239,11.9246191 24.7161239,11.6720128 L24.7161239,10.5172414 C24.9646107,10.6976744 25.2449548,10.7818765 25.5507847,10.7818765 C26.5128745,10.7818765 27.2901921,10.0481155 27.2901921,9.13993585 C27.2901921,8.21972735 26.5128745,7.48596632 25.5507847,7.48596632 Z M25.569899,9.93985565 C25.1047827,9.93985565 24.7161239,9.58500401 24.7161239,9.13993585 C24.7161239,8.68283881 25.1047827,8.32798717 25.569899,8.32798717 C26.0477582,8.32798717 26.4236741,8.68283881 26.4236741,9.13993585 C26.4236741,9.58500401 26.0477582,9.93985565 25.569899,9.93985565 Z" id="Rp" fill="#FFFFFF" fill-rule="nonzero"></path>
                        </g>
                    </g>
                </g>
            </g>
        </g>
    </g>
</svg>