<?xml version="1.0" encoding="UTF-8"?>
<svg width="42px" height="50px" viewBox="0 0 42 50" version="1.1" xmlns="http://www.w3.org/2000/svg" xmlns:xlink="http://www.w3.org/1999/xlink">
    <title>ico_simcard</title>
    <defs>
        <path d="M25.0087273,0 C26.9223493,0 28.7410515,0.833571834 29.9902596,2.2832023 L39.5055323,13.3251012 C40.5341788,14.5187833 41.1,16.0421481 41.1,17.6178989 L41.1,42.744 C41.1,46.3758245 38.1558245,49.32 34.524,49.32 L6.576,49.32 C2.94417549,49.32 0,46.3758245 0,42.744 L0,6.576 C0,2.94417549 2.94417549,0 6.576,0 L25.0087273,0 Z M28.408,33.592 L26.6693333,33.5924 L26.669,39.729 L28.408,39.729 L28.408,33.592 Z M25.4272,33.5924 L19.2165333,33.5924 L19.216,39.729 L25.427,39.729 L25.4272,33.5924 Z M34.524,33.592 L29.65,33.592 L29.65,39.729 L31.2478226,39.73 C32.9948129,39.73 34.4224344,38.3626196 34.5188138,36.639732 L34.524,36.4538226 L34.524,33.592 Z M17.9744,33.5924 L14.796,33.592 L14.796,36.4538226 C14.796,38.2008129 16.1633804,39.6284344 17.886268,39.7248138 L17.974,39.726 L17.9744,33.5924 Z M34.524,27.381 L14.796,27.381 L14.796,32.35 L34.524,32.35 L34.524,27.381 Z M14.8011862,23.914268 L14.796,24.1001774 L14.796,26.139 L17.477,26.139 L17.4775877,20.8778221 C16.0113249,21.1466436 14.8863641,22.3916192 14.8011862,23.914268 Z M27.911,20.823 L21.7,20.823 L21.7008,26.1396 L27.9114667,26.1396 L27.911,20.823 Z M31.2478226,20.824 L29.153,20.823 L29.1536,26.1396 L34.524,26.139 L34.524,24.1001774 C34.524,22.2907946 33.0572054,20.824 31.2478226,20.824 Z M20.458,20.823 L18.719,20.823 L18.719,26.139 L20.4586667,26.1396 L20.458,20.823 Z" id="path-1"></path>
    </defs>
    <g id="IDLE-MESSAGE" stroke="none" stroke-width="1" fill="none" fill-rule="evenodd">
        <g id="Desktop/Landing_nation_wide" transform="translate(-150.000000, -807.000000)">
            <g id="Group-10" transform="translate(0.000000, 540.000000)">
                <g id="ASYIK" transform="translate(108.000000, 229.000000)">
                    <g id="Group" transform="translate(42.470000, 38.360000)">
                        <rect id="Rectangle" stroke="#979797" stroke-width="1.36507392" fill="#FFFFFF" x="12.33" y="17.81" width="23.29" height="23.29"></rect>
                        <mask id="mask-2" fill="white">
                            <use xlink:href="#path-1"></use>
                        </mask>
                        <use id="Combined-Shape" fill="#ED1C24" fill-rule="nonzero" xlink:href="#path-1"></use>
                        <g id="Group-7" mask="url(#mask-2)">
                            <g transform="translate(10.960000, 19.180000)" id="Group-2">
                                <g transform="translate(0.548000, 0.748933)" id="Group-5">
                                    <g id="Group-6" transform="translate(2.740000, 0.000000)"></g>
                                    <g id="Group-6" transform="translate(12.467000, 16.449133) scale(-1, -1) translate(-12.467000, -16.449133) translate(0.822000, 11.654133)"></g>
                                </g>
                            </g>
                        </g>
                    </g>
                </g>
            </g>
        </g>
    </g>
</svg>