<?xml version="1.0" encoding="UTF-8"?>
<svg width="56px" height="47px" viewBox="0 0 56 47" version="1.1" xmlns="http://www.w3.org/2000/svg" xmlns:xlink="http://www.w3.org/1999/xlink">
    <title>ico_cc</title>
    <g id="IDLE-MESSAGE" stroke="none" stroke-width="1" fill="none" fill-rule="evenodd">
        <g id="Desktop/Landing_nation_wide" transform="translate(-922.000000, -812.000000)">
            <g id="Group-10" transform="translate(0.000000, 540.000000)">
                <g id="ASYIK" transform="translate(108.000000, 229.000000)">
                    <g id="Icon/Help/ico_tariff" transform="translate(779.000000, 0.000000)">
                        <rect id="Rectangle" x="35.62" y="35.62" width="54.8" height="54.8"></rect>
                        <g id="payment" transform="translate(35.253609, 43.473609)" fill-rule="nonzero">
                            <path d="M9.89958678,43.6508123 L1.89323054,22.8662122 C1.08965032,20.7797707 2.1291903,18.4360595 4.21679412,17.6320917 L42.0067646,3.0758201 C44.0932062,2.27223977 46.4369174,3.31177976 47.2404977,5.39938368 L55.2468539,26.1839837 C56.0504343,28.2704253 55.0108943,30.6141365 52.9232904,31.4181042 L15.1344822,45.9743759 C13.0468783,46.7779561 10.7043294,45.7372538 9.89958678,43.6508123 Z" id="Path" fill="#FCD401" transform="translate(28.570042, 24.525027) rotate(2.000000) translate(-28.570042, -24.525027) "></path>
                            <polygon id="Path" fill="#FDE45F" transform="translate(28.942741, 25.598253) rotate(2.000000) translate(-28.942741, -25.598253) " points="50.0886421 12.9005994 4.77779562 30.4639041 7.7949025 38.2959059 53.1076862 20.7407377"></polygon>
                            <path d="M0.3667788,26.7187101 L0.3667788,4.44589794 C0.3667788,2.20951156 2.18006503,0.396225304 4.41645141,0.396225304 L44.9124029,0.396225304 C47.1487893,0.396225304 48.9620756,2.20951156 48.9620756,4.44589794 L48.9620756,26.7187101 C48.9620756,28.9550964 47.1487893,30.7683826 44.9124029,30.7683826 L4.41645141,30.7683826 C2.18006503,30.7683826 0.3667788,28.9550964 0.3667788,26.7187101 Z" id="Path" fill="#ED1C24"></path>
                            <path d="M44.9124029,0.396225304 L40.6097226,0.396225304 L10.2375652,30.7683826 L44.9124029,30.7683826 C47.1487893,30.7683826 48.9620756,28.9550964 48.9620756,26.7187101 L48.9620756,4.44589794 C48.9620756,2.20951156 47.1487893,0.396225304 44.9124029,0.396225304 Z" id="Path" fill="#D01920"></path>
                            <polygon id="Path" fill="#FF979C" points="4.41645141 16.5945284 8.46612405 16.5945284 8.46612405 18.6193648 4.41645141 18.6193648"></polygon>
                            <polygon id="Path" fill="#FF979C" points="4.41645141 22.6690373 8.46612405 22.6690373 8.46612405 24.6938737 4.41645141 24.6938737"></polygon>
                            <polygon id="Path" fill="#FF979C" points="22.6395909 22.6690373 26.6892635 22.6690373 26.6892635 24.6938737 22.6395909 24.6938737"></polygon>
                            <polygon id="Path" fill="#FF979C" points="10.4909604 16.5945284 14.5402456 16.5945284 14.5402456 18.6193648 10.4909604 18.6193648"></polygon>
                            <polygon id="Path" fill="#FF979C" points="16.5650819 16.5945284 20.6147545 16.5945284 20.6147545 18.6193648 16.5650819 18.6193648"></polygon>
                            <polygon id="Path" fill="#FF979C" points="22.6395909 16.5945284 26.6892635 16.5945284 26.6892635 18.6193648 22.6395909 18.6193648"></polygon>
                            <polygon id="Path" fill="#FF979C" points="41.8751484 4.44589794 43.8999848 4.44589794 43.8999848 7.48315245 41.8751484 7.48315245"></polygon>
                            <polygon id="Path" fill="#FF979C" points="37.8254758 4.44589794 39.8503121 4.44589794 39.8503121 7.48315245 37.8254758 7.48315245"></polygon>
                            <polygon id="Path" fill="#FF979C" points="33.7758032 4.44589794 35.8006395 4.44589794 35.8006395 7.48315245 33.7758032 7.48315245"></polygon>
                            <polygon id="Path" fill="#FF979C" points="29.726518 4.44589794 31.7509668 4.44589794 31.7509668 7.48315245 29.726518 7.48315245"></polygon>
                            <path d="M4.41645141,10.9252967 L4.41645141,6.06584456 C4.41645141,5.17082502 5.14137849,4.44589794 6.03639794,4.44589794 L10.8958502,4.44589794 C11.7908697,4.44589794 12.5154093,5.17082502 12.5154093,6.06584456 L12.5154093,10.9252967 C12.5154093,11.8203161 11.7908697,12.5452432 10.8958502,12.5452432 L6.03639794,12.5452432 C5.14137849,12.5452432 4.41645141,11.8203161 4.41645141,10.9252967 Z" id="Path" fill="#FDB62F"></path>
                            <polygon id="Path" fill="#FD7B2F" points="4.41645141 7.48315245 7.45370592 7.48315245 7.45370592 9.50798872 4.41645141 9.50798872"></polygon>
                            <polygon id="Path" fill="#FD7B2F" points="9.47854229 7.48315245 12.5154093 7.48315245 12.5154093 9.50798872 9.47854229 9.50798872"></polygon>
                        </g>
                    </g>
                </g>
            </g>
        </g>
    </g>
</svg>