<?xml version="1.0" encoding="UTF-8"?>
<svg width="95px" height="94px" viewBox="0 0 95 94" version="1.1" xmlns="http://www.w3.org/2000/svg" xmlns:xlink="http://www.w3.org/1999/xlink">
    <title>Group 7</title>
    <defs>
        <linearGradient x1="50%" y1="0%" x2="50%" y2="100%" id="linearGradient-1">
            <stop stop-color="#EEEEEE" offset="0%"></stop>
            <stop stop-color="#FAFAFA" offset="100%"></stop>
        </linearGradient>
        <path d="M4.03478261,9.10809045 L52.4521739,9.10809045 C54.6805228,9.10809045 56.4869565,11.0186573 56.4869565,13.3754609 L56.4869565,75.1437503 C56.4869565,77.5005539 54.6805228,79.4111208 52.4521739,79.4111208 L4.03478261,79.4111208 C1.80643371,79.4111208 2.43786212e-13,77.5005539 2.43786212e-13,75.1437503 L2.43786212e-13,13.3754609 C2.43786212e-13,11.0186573 1.80643371,9.10809045 4.03478261,9.10809045 Z" id="path-2"></path>
        <path d="M3.14546568,-8.31957025e-14 C4.88265841,-8.35148196e-14 6.29093136,1.40827295 6.29093136,3.14546568 L6.29093136,53.1397306 L6.29093136,53.1397306 C4.91128595,56.4978296 3.86279739,58.176879 3.14546568,58.176879 C2.42813398,58.176879 1.37964542,56.4978296 0,53.1397306 L0,3.14546568 C-2.12744751e-16,1.40827295 1.40827295,-8.28765854e-14 3.14546568,-8.31957025e-14 Z" id="path-4"></path>
    </defs>
    <g id="IDLE-MESSAGE" stroke="none" stroke-width="1" fill="none" fill-rule="evenodd">
        <g id="Desktop/Landing_nation_wide" transform="translate(-180.000000, -3314.000000)">
            <g id="Group-13" transform="translate(0.000000, 3228.000000)">
                <g id="CARD/SMALL_ICON/Card---Small-Info-Copy-3" transform="translate(150.000000, 63.000000)">
                    <g id="Group-7" transform="translate(30.000000, 23.000000)">
                        <g id="Group" transform="translate(0.320000, 0.320000)" fill="url(#linearGradient-1)">
                            <g id="Icon/bg_icon_circle" transform="translate(0.000000, 0.000000)">
                                <circle id="Oval" cx="46.46" cy="46.46" r="46.46"></circle>
                            </g>
                        </g>
                        <g id="Group-22" transform="translate(17.000000, 4.000000)">
                            <g id="Group-5" transform="translate(0.252174, 0.000000)">
                                <mask id="mask-3" fill="white">
                                    <use xlink:href="#path-2"></use>
                                </mask>
                                <use id="Rectangle-4" fill="#FCD401" fill-rule="nonzero" xlink:href="#path-2"></use>
                                <rect id="Rectangle-2" fill="#FFFFFF" fill-rule="nonzero" opacity="0.617047991" mask="url(#mask-3)" x="16.5173913" y="23.082147" width="31.9" height="3.99258759" rx="1.6"></rect>
                                <rect id="Rectangle-2-Copy" fill="#FFFFFF" fill-rule="nonzero" opacity="0.617047991" mask="url(#mask-3)" x="6.99782609" y="23.082147" width="4.35" height="3.99258759" rx="1.6"></rect>
                                <rect id="Rectangle-2" fill="#FFFFFF" fill-rule="nonzero" opacity="0.617047991" mask="url(#mask-3)" x="16.5173913" y="34.2489155" width="31.9" height="3.99258759" rx="1.6"></rect>
                                <rect id="Rectangle-2-Copy-2" fill="#FFFFFF" fill-rule="nonzero" opacity="0.617047991" mask="url(#mask-3)" x="6.99782609" y="34.2489155" width="4.35" height="3.99258759" rx="1.6"></rect>
                                <rect id="Rectangle-2" fill="#FFFFFF" fill-rule="nonzero" opacity="0.617047991" mask="url(#mask-3)" x="16.5173913" y="45.4156839" width="31.9" height="3.99258759" rx="1.6"></rect>
                                <rect id="Rectangle-2-Copy-3" fill="#FFFFFF" fill-rule="nonzero" opacity="0.617047991" mask="url(#mask-3)" x="6.99782609" y="45.4156839" width="4.35" height="3.99258759" rx="1.6"></rect>
                                <rect id="Rectangle-2" fill="#FFFFFF" fill-rule="nonzero" opacity="0.617047991" mask="url(#mask-3)" x="16.5173913" y="56.5824523" width="31.9" height="3.99258759" rx="1.6"></rect>
                                <rect id="Rectangle-2-Copy-4" fill="#FFFFFF" fill-rule="nonzero" opacity="0.617047991" mask="url(#mask-3)" x="6.99782609" y="56.5824523" width="4.35" height="3.99258759" rx="1.6"></rect>
                                <rect id="Rectangle-2" fill="#FFFFFF" fill-rule="nonzero" opacity="0.617047991" mask="url(#mask-3)" x="16.5173913" y="67.7492207" width="20.3" height="3.99258759" rx="1.6"></rect>
                                <rect id="Rectangle-2-Copy-5" fill="#FFFFFF" fill-rule="nonzero" opacity="0.617047991" mask="url(#mask-3)" x="6.99782609" y="67.7492207" width="4.35" height="3.99258759" rx="1.6"></rect>
                                <path d="M14.1217391,7.11179665 L42.3652174,7.11179665 L42.3652174,11.8969718 C42.3652174,13.664283 40.9325286,15.0969718 39.1652174,15.0969718 L17.3217391,15.0969718 C15.5544279,15.0969718 14.1217391,13.664283 14.1217391,11.8969718 L14.1217391,7.11179665 L14.1217391,7.11179665 Z" id="Rectangle" fill="#ED1C24" fill-rule="nonzero" mask="url(#mask-3)"></path>
                                <g id="Group-6" mask="url(#mask-3)" fill="#ED1C24">
                                    <g transform="translate(10.376608, 32.484462) rotate(-43.000000) translate(-10.376608, -32.484462) translate(-1.623392, 21.484462)">
                                        <path d="M15.9387519,0.481829281 C16.5018234,0.481829281 16.9582831,0.93828897 16.9582831,1.50136053 L16.9582206,3.70982928 L21.9993435,3.71021066 C22.5936721,3.71021066 23.0754706,4.19200918 23.0754706,4.78633778 C23.0754706,5.38066638 22.5936721,5.86246491 21.9993435,5.86246491 L17.0714749,5.86246491 L16.9582206,5.85782928 L16.9582831,5.86246491 L16.103865,5.86246491 C15.449604,5.86246491 14.9192206,5.33208157 14.9192206,4.67782056 L14.9192206,1.50136053 C14.9192206,0.93828897 15.3756803,0.481829281 15.9387519,0.481829281 Z" id="Combined-Shape"></path>
                                        <path d="M8.35887984,8.96772604 C8.9219514,8.96772604 9.37841109,9.42418573 9.37841109,9.98725729 L9.37834859,12.195726 L14.4194715,12.1961074 C15.0138001,12.1961074 15.4955986,12.6779059 15.4955986,13.2722345 C15.4955986,13.8665631 15.0138001,14.3483617 14.4194715,14.3483617 L9.49160284,14.3483617 L9.37834859,14.343726 L9.37841109,14.3483617 L8.52399294,14.3483617 C7.86973193,14.3483617 7.33934859,13.8179783 7.33934859,13.1637173 L7.33934859,9.98725729 C7.33934859,9.42418573 7.79580828,8.96772604 8.35887984,8.96772604 Z" id="Combined-Shape-Copy"></path>
                                        <path d="M1.0671968,16.3159356 C1.63026836,16.3159356 2.08672805,16.7723952 2.08672805,17.3354668 L2.08666555,19.5439356 L7.12778843,19.5443169 C7.72211703,19.5443169 8.20391555,20.0261155 8.20391555,20.6204441 C8.20391555,21.2147727 7.72211703,21.6965712 7.12778843,21.6965712 L2.1999198,21.6965712 L2.08666555,21.6919356 L2.08672805,21.6965712 L1.23230989,21.6965712 C0.578048889,21.6965712 0.0476655501,21.1661878 0.0476655501,20.5119268 L0.0476655501,17.3354668 C0.0476655501,16.7723952 0.504125239,16.3159356 1.0671968,16.3159356 Z" id="Combined-Shape-Copy-2"></path>
                                    </g>
                                </g>
                                <path d="M28.1173913,0 C34.1757149,0 39.0869565,4.85988077 39.0869565,10.8548475 C39.0869565,12.4397238 37.7885823,13.7245199 36.1869565,13.7245199 C34.6581319,13.7245199 33.4056171,12.5538689 33.2949108,11.0690145 L33.2869565,10.8548475 C33.2869565,8.02963331 30.9724633,5.73934467 28.1173913,5.73934467 C25.3544184,5.73934467 23.0977107,7.88425598 22.9549918,10.5831685 L22.9478261,10.8548475 C22.9478261,12.4397238 21.6494519,13.7245199 20.0478261,13.7245199 C18.4462003,13.7245199 17.1478261,12.4397238 17.1478261,10.8548475 C17.1478261,4.85988077 22.0590677,0 28.1173913,0 Z" id="Oval" fill="#ED1C24" fill-rule="nonzero"></path>
                            </g>
                            <g id="Rectangle-5" transform="translate(60.179016, 46.752138) rotate(28.000000) translate(-60.179016, -46.752138) translate(56.679016, 17.252138)">
                                <mask id="mask-5" fill="white">
                                    <use xlink:href="#path-4"></use>
                                </mask>
                                <use id="Rectangle" fill="#ED1C24" xlink:href="#path-4"></use>
                                <ellipse id="Oval-Copy-2" fill="#FF6B71" mask="url(#mask-5)" cx="3.14546568" cy="54.9410774" rx="4.4935224" ry="4.503367"></ellipse>
                                <ellipse id="Oval" fill="#B42126" mask="url(#mask-5)" cx="3.14546568" cy="57.1927609" rx="3.14546568" ry="3.1523569"></ellipse>
                            </g>
                        </g>
                    </g>
                </g>
            </g>
        </g>
    </g>
</svg>