<?xml version="1.0" encoding="UTF-8"?>
<svg width="94px" height="94px" viewBox="0 0 94 94" version="1.1" xmlns="http://www.w3.org/2000/svg" xmlns:xlink="http://www.w3.org/1999/xlink">
    <title>Group 43</title>
    <defs>
        <linearGradient x1="50%" y1="0%" x2="50%" y2="100%" id="linearGradient-1">
            <stop stop-color="#EEEEEE" offset="0%"></stop>
            <stop stop-color="#FAFAFA" offset="100%"></stop>
        </linearGradient>
        <path d="M14.6417167,0 L57.9077296,0 C58.1194395,-2.70540531e-15 58.3170891,0.105996596 58.4342228,0.282350683 L72.1842478,20.9840921 C73.062117,22.305793 72.7023203,24.0888968 71.3806194,24.966766 C70.9095471,25.2796506 70.3566104,25.4465497 69.7910967,25.4465497 L2.75834958,25.4465497 C1.17167143,25.4465497 -0.114585352,24.160293 -0.114585352,22.5736148 C-0.114585352,22.008101 0.0523138291,21.4551643 0.365198396,20.9840921 L14.1152234,0.282350683 C14.2323572,0.105996596 14.4300067,-6.09249331e-16 14.6417167,0 Z" id="path-2"></path>
    </defs>
    <g id="IDLE-MESSAGE" stroke="none" stroke-width="1" fill="none" fill-rule="evenodd">
        <g id="Desktop/Landing_nation_wide" transform="translate(-177.000000, -2274.000000)">
            <g id="Group-11" transform="translate(0.000000, 2058.000000)">
                <g id="Group-42" transform="translate(147.000000, 173.000000)">
                    <g id="Group-10" transform="translate(30.000000, 39.000000)">
                        <g id="Group-43" transform="translate(0.000000, 4.000000)">
                            <g id="Group" transform="translate(0.320000, 0.320000)" fill="url(#linearGradient-1)">
                                <g id="Icon/bg_icon_circle" transform="translate(0.000000, 0.000000)">
                                    <circle id="Oval" cx="46.46" cy="46.46" r="46.46"></circle>
                                </g>
                            </g>
                            <g id="Icon/Help/ico_activate_sim-Copy" transform="translate(10.000000, 10.000000)">
                                <g id="Group-3" transform="translate(0.110000, 0.110000)">
                                    <g id="Group" transform="translate(0.000000, 44.473453)">
                                        <mask id="mask-3" fill="white">
                                            <use xlink:href="#path-2"></use>
                                        </mask>
                                        <use id="Rectangle-15" fill="#DA2021" fill-rule="nonzero" xlink:href="#path-2"></use>
                                        <path d="M4.73525201,9.20407118 C7.39219963,12.7551798 10.3203791,14.7661533 13.5197904,15.2369918 C18.3189073,15.9432495 23.1368964,12.2205315 26.6965979,12.2205315 C30.2562995,12.2205315 33.1844789,16.1239014 34.0170466,21.2699124 C34.5720917,24.7005864 32.619972,27.7170467 28.1606877,30.3192933 L-11.369735,30.3192933 L4.73525201,9.20407118 Z" id="Path-2" fill="#F35F60" fill-rule="nonzero" mask="url(#mask-3)"></path>
                                        <path d="M7.57982333,-0.18886603 C7.57982333,5.93039333 9.03748166,9.4999613 11.9527983,10.5198379 C16.3257733,12.0496527 22.1564067,12.0496527 27.98704,5.93039333 C31.8741289,1.85088709 37.7047622,-1.20874259 45.47894,-3.24849571 L33.8176733,-3.24849571 L10.49514,-3.24849571 L7.57982333,-0.18886603 Z" id="Path-3" fill="#F35F60" fill-rule="nonzero" mask="url(#mask-3)"></path>
                                        <path d="M32.3370019,10.5061413 C30.3285694,5.80948301 36.4235458,2.74849111 41.2365067,-1.3859849 C46.0494676,-5.52046092 50.3649494,-6.39095381 54.9385811,-5.7797939 C57.9876689,-5.37235396 60.9541705,-2.89482767 63.8380859,1.65278497 C68.5470437,6.60783756 68.9238549,9.55895633 64.9685195,10.5061413 C61.6233213,11.3072166 54.5857639,7.53310975 51.9720795,9.08536385 C46.7150495,12.2074877 57.9050827,19.4909743 48.8441155,19.4909743 C39.7831483,19.4909743 34.3454345,15.2027996 32.3370019,10.5061413 Z" id="Path-4" fill="#F35F60" fill-rule="nonzero" mask="url(#mask-3)"></path>
                                        <rect id="Rectangle" fill="#FF9E9E" fill-rule="nonzero" mask="url(#mask-3)" x="-12.9939828" y="22.198054" width="107.200358" height="9.20407118"></rect>
                                    </g>
                                    <g id="Group-2" transform="translate(16.242479, 0.000000)" fill-rule="nonzero">
                                        <circle id="Oval" fill="#FFFFFF" cx="19.4909743" cy="17.8667264" r="11.9111509"></circle>
                                        <path d="M38.9819485,19.528575 C38.9819485,8.74592624 30.2528619,0 19.4909743,0 C8.72908664,0 0,8.74592624 0,19.528575 C0,23.2425985 1.0164005,26.7170075 2.81004844,29.6522842 C3.16877803,30.3112238 3.58729588,30.9102598 4.065602,31.4493923 L19.6158344,57.3900909 L34.5990516,32.5262641 C35.0773577,31.927228 35.8131705,30.3112238 36.1719001,29.7121878 C37.965548,26.7170075 38.9819485,23.2425985 38.9819485,19.528575 Z M19.7616822,27.6122136 C13.9097493,27.6122136 9.20407118,22.9065355 9.20407118,17.0546025 C9.20407118,11.2026695 13.9097493,6.49699142 19.7616822,6.49699142 C25.6136152,6.49699142 30.3192933,11.2026695 30.3192933,17.0546025 C30.3192933,22.8462063 25.6136152,27.6122136 19.7616822,27.6122136 Z" id="Shape" fill="#ED2324"></path>
                                    </g>
                                </g>
                            </g>
                        </g>
                    </g>
                </g>
            </g>
        </g>
    </g>
</svg>